Coordinates
version=1
nRows=14
nColumns=33
inDegrees=yes

Units are S.I. units (second, meters, Newtons, ...)
Angles are in degrees.

endheader
time	ground_thorax_rot_x	ground_thorax_rot_y	ground_thorax_rot_z	ground_thorax_tx	ground_thorax_ty	ground_thorax_tz	clav_prot_r	clav_elev_r	scapula_abduction_r	scapula_elevation_r	scapula_upward_rot_r	scapula_winging_r	shoulder_elv_r	plane_of_elev_r	axial_rot_r	elbow_flexion_r	pro_sup_r	wrist_flex_r	wrist_dev_r	clav_prot_l	clav_elev_l	scapula_abduction_l	scapula_elevation_l	scapula_upward_rot_l	scapula_winging_l	shoulder_elv_l	plane_of_elev_l	axial_rot_l	elbow_flexion_l	pro_sup_l	wrist_flex_l	wrist_dev_l
      4.35000000	     27.97992939	     35.73849489	     44.85734291	     44.33912407	    768.98417035	    -46.61471227	     11.97442061	     36.84819092	     27.70406338	     45.00000000	    -45.00000000	   -442.40932193	  -3709.50333066	    159.67274300	     24.46500918	      1.26607928	    168.09271758	     11.63605855	     13.38362140	    -13.99586747	    -45.00000000	    -33.34134228	     45.00000000	    -45.00000000	  -4220.30761320	    -94.89173096	    137.59405979	   -137.30244546	   1069.45662997	    406.29405192	     11.69163728	    -15.38162088
      4.36000000	     27.99137198	     35.64931971	     44.68107278	     41.46431919	    768.99284010	    -46.54817557	     12.33455271	     36.45068967	     27.39583840	     45.00000000	    -45.00000000	   -442.40015202	  -3709.36007385	    159.60176551	     24.52238818	      1.36164336	    168.32844785	     11.59230871	     13.39039988	    -13.82267258	    -45.00000000	    -33.46378691	     45.00000000	    -45.00000000	  -4220.10092103	    -94.68647258	    137.51401842	   -137.54595582	   1069.33149106	    406.45891805	     11.67419566	    -15.38606849
      4.37000000	     27.88939892	     35.58704286	     44.73732664	     38.53051679	    769.04972581	    -46.46745789	     12.86516782	     35.89522597	     27.19822806	     45.00000000	    -45.00000000	   -442.13150227	  -3709.08333104	    159.99908788	     24.72672246	      1.34122661	    168.47523824	     11.57206304	     13.33677770	    -13.56355248	    -45.00000000	    -33.56573219	     45.00000000	    -45.00000000	  -4219.84764260	    -94.48117730	    137.57915417	   -138.00860561	   1069.26472168	    406.62203505	     11.67419264	    -15.41394618
      4.38000000	     28.05389784	     35.50466043	     44.40282568	     35.54256886	    769.15994028	    -46.37665338	     12.65336392	     35.96416611	     27.11494804	     45.00000000	    -45.00000000	   -442.39251407	  -3709.01178766	    159.99109392	     24.99208554	      1.30204035	    168.66609990	     11.61974798	     13.32915224	    -13.52938571	    -45.00000000	    -33.51855046	     45.00000000	    -45.00000000	  -4219.76927965	    -94.30469960	    137.56728968	   -138.14346129	   1069.33855154	    406.72620900	     11.65662142	    -15.49379589
      4.39000000	     28.14684655	     35.26670650	     44.17809608	     32.51080234	    769.32878457	    -46.27872743	     12.71551666	     35.91322457	     27.06680743	     45.00000000	    -45.00000000	   -442.44896494	  -3708.93034819	    160.01600018	     25.15025889	      1.27446576	    168.82801000	     11.63192691	     13.36724196	    -13.39010099	    -45.00000000	    -33.64482358	     45.00000000	    -45.00000000	  -4219.59478272	    -94.22733193	    137.63142381	   -138.42826974	   1069.29115466	    406.81603231	     11.66962298	    -15.55399976
      4.40000000	     28.29305738	     35.15953654	     43.87629769	     29.43099316	    769.56276852	    -46.17560900	     12.64087694	     35.92053715	     26.99573496	     45.00000000	    -45.00000000	   -442.69110919	  -3708.85751828	    159.99843863	     25.31895455	      1.28319003	    169.03572403	     11.66557988	     13.39300198	    -13.29683481	    -45.00000000	    -33.69708325	     45.00000000	    -45.00000000	  -4219.45567218	    -94.10027935	    137.59984935	   -138.56904010	   1069.34971178	    406.86975483	     11.65802413	    -15.62703730
      4.41000000	     28.58820921	     34.85894551	     43.45348076	     26.31382011	    769.86843072	    -46.06865919	     12.19154405	     36.37836271	     27.06634182	     45.00000000	    -45.00000000	   -443.25790209	  -3708.93191379	    159.58259120	     25.42005803	      1.24825416	    169.27981757	     11.74935866	     13.49994814	    -13.27603499	    -45.00000000	    -33.71852150	     45.00000000	    -45.00000000	  -4219.27540263	    -94.17958836	    137.61727868	   -138.71625757	   1069.43879222	    406.89073826	     11.66121925	    -15.75016876
      4.42000000	     28.51160894	     34.77599638	     43.36931871	     23.15433083	    770.25365730	    -45.95872454	     12.72085160	     35.81768222	     26.89516117	     45.00000000	    -45.00000000	   -442.93726359	  -3708.67948810	    160.05495738	     25.53196401	      1.28866070	    169.48248147	     11.72751746	     13.46327640	    -13.00960940	    -45.00000000	    -33.94363575	     45.00000000	    -45.00000000	  -4219.13972172	    -93.88925094	    137.61489652	   -138.86746081	   1069.29411680	    406.91946127	     11.67942568	    -15.72634765
      4.43000000	     28.62132352	     34.55417638	     43.12023529	     19.96380634	    770.72547174	    -45.84741234	     12.69954189	     35.77893548	     26.84089466	     45.00000000	    -45.00000000	   -443.08321605	  -3708.57422431	    160.05800534	     25.70776051	      1.24087197	    169.62197254	     11.76384128	     13.50071034	    -12.91415455	    -45.00000000	    -34.02879708	     45.00000000	    -45.00000000	  -4218.97880144	    -93.79593408	    137.64631239	   -139.07838331	   1069.30006838	    406.91857341	     11.70056479	    -15.79420600
      4.44000000	     28.81302325	     34.39614961	     42.79661737	     16.74220849	    771.29117620	    -45.73633278	     12.56062683	     35.86424749	     26.79238913	     45.00000000	    -45.00000000	   -443.37216572	  -3708.49613028	    159.98451897	     25.78541896	      1.21103826	    169.79581466	     11.81584221	     13.53518250	    -12.81131299	    -45.00000000	    -34.05796061	     45.00000000	    -45.00000000	  -4218.84431967	    -93.64999685	    137.62058549	   -139.10031871	   1069.37165430	    406.89359089	     11.69963110	    -15.86668877
      4.45000000	     28.87957096	     34.17328712	     42.54838167	     13.49816279	    771.95585283	    -45.62769477	     12.67654492	     35.75083742	     26.74148602	     45.00000000	    -45.00000000	   -443.45721406	  -3708.43892084	    160.02480201	     25.82394452	      1.26630625	    169.93536306	     11.80587157	     13.60073002	    -12.66483075	    -45.00000000	    -34.23965803	     45.00000000	    -45.00000000	  -4218.69595356	    -93.53048956	    137.59690822	   -139.23549505	   1069.30600142	    406.86857665	     11.73217715	    -15.91033540
      4.46000000	     28.99660481	     33.97844723	     42.28366932	     10.23284886	    772.72313064	    -45.52326086	     12.65866958	     35.72449331	     26.70569817	     45.00000000	    -45.00000000	   -443.64693659	  -3708.35269226	    160.04168480	     25.91035400	      1.25223530	    170.07280331	     11.83903549	     13.64345782	    -12.53064390	    -45.00000000	    -34.35905924	     45.00000000	    -45.00000000	  -4218.54214991	    -93.41082366	    137.58089759	   -139.28417582	   1069.32323803	    406.83067729	     11.74703422	    -15.97190666
      4.47000000	     29.11620024	     33.75090878	     42.00869102	      6.94963042	    773.59379334	    -45.42478845	     12.65930100	     35.69498025	     26.66435786	     45.00000000	    -45.00000000	   -443.84036996	  -3708.27024480	    160.00827833	     25.93620983	      1.24886778	    170.17832056	     11.86510912	     13.69065710	    -12.39485885	    -45.00000000	    -34.47356399	     45.00000000	    -45.00000000	  -4218.39479849	    -93.26326247	    137.54882939	   -139.28073852	   1069.31747077	    406.78666162	     11.77038091	    -16.02599868
      4.48000000	     29.24572540	     33.53103752	     41.72101017	      3.65100683	    774.56547740	    -45.33353779	     12.63724460	     35.69536314	     26.62748884	     45.00000000	    -45.00000000	   -444.06689170	  -3708.17779136	    159.97048731	     25.96445138	      1.23748611	    170.27189795	     11.90469428	     13.73245015	    -12.27882342	    -45.00000000	    -34.57702852	     45.00000000	    -45.00000000	  -4218.26167517	    -93.10714993	    137.50094280	   -139.20524653	   1069.32941874	    406.73256098	     11.79078658	    -16.07973674
